<svg xmlns="http://www.w3.org/2000/svg" xmlns:xlink="http://www.w3.org/1999/xlink" width="500" zoomAndPan="magnify" viewBox="0 0 375 374.999991" height="500" preserveAspectRatio="xMidYMid meet" version="1.0"><defs><g/><clipPath id="7d96672740"><path d="M 37.628906 44.644531 L 337.628906 44.644531 L 337.628906 344.644531 L 37.628906 344.644531 Z M 37.628906 44.644531 " clip-rule="nonzero"/></clipPath><clipPath id="61b0d60f3f"><path d="M 187.628906 344.644531 C 147.578125 344.644531 109.871094 329.054688 81.574219 300.699219 C 53.214844 272.402344 37.628906 234.691406 37.628906 194.644531 C 37.628906 154.597656 53.214844 116.886719 81.574219 88.589844 C 109.871094 60.230469 147.578125 44.644531 187.628906 44.644531 C 227.675781 44.644531 265.386719 60.230469 293.683594 88.589844 C 322.039062 116.945312 337.628906 154.597656 337.628906 194.644531 C 337.628906 234.691406 322.039062 272.402344 293.683594 300.699219 C 265.386719 329.054688 227.675781 344.644531 187.628906 344.644531 Z M 187.628906 53.636719 C 149.976562 53.636719 114.546875 68.324219 87.925781 94.945312 C 61.308594 121.5625 46.621094 156.996094 46.621094 194.644531 C 46.621094 232.292969 61.308594 267.726562 87.925781 294.34375 C 114.546875 320.964844 149.976562 335.652344 187.628906 335.652344 C 225.277344 335.652344 260.710938 320.964844 287.328125 294.34375 C 313.945312 267.726562 328.636719 232.292969 328.636719 194.644531 C 328.636719 156.996094 313.945312 121.5625 287.328125 94.945312 C 260.710938 68.324219 225.277344 53.636719 187.628906 53.636719 Z M 187.628906 53.636719 " clip-rule="nonzero"/></clipPath></defs><g clip-path="url(#7d96672740)"><g clip-path="url(#61b0d60f3f)"><path fill="#ffffff" d="M 37.628906 44.644531 L 337.628906 44.644531 L 337.628906 344.644531 L 37.628906 344.644531 Z M 37.628906 44.644531 " fill-opacity="1" fill-rule="nonzero"/></g></g><g fill="#ffffff" fill-opacity="1"><g transform="translate(102.074847, 227.278246)"><g><path d="M 34.796875 -94.46875 L 34.796875 -75.578125 C 46.203125 -88.171875 56.546875 -94.46875 65.828125 -94.46875 C 71.921875 -94.46875 76.921875 -92.773438 80.828125 -89.390625 C 84.742188 -86.015625 87.429688 -81.007812 88.890625 -74.375 C 98.972656 -87.769531 109.976562 -94.46875 121.90625 -94.46875 C 130.53125 -94.46875 136.726562 -91.382812 140.5 -85.21875 C 144.28125 -79.050781 146.171875 -71.925781 146.171875 -63.84375 L 146.171875 -21.078125 C 146.171875 -16.046875 146.664062 -12.300781 147.65625 -9.84375 C 148.65625 -7.394531 150.210938 -5.738281 152.328125 -4.875 C 154.453125 -4.007812 157.4375 -3.578125 161.28125 -3.578125 L 161.28125 0 L 114.359375 0 L 114.359375 -3.578125 C 118.460938 -3.578125 121.570312 -3.972656 123.6875 -4.765625 C 125.8125 -5.566406 127.367188 -7.226562 128.359375 -9.75 C 129.359375 -12.269531 129.859375 -16.179688 129.859375 -21.484375 L 129.859375 -65.625 C 129.859375 -70.269531 128.5 -74.25 125.78125 -77.5625 C 123.070312 -80.875 119.128906 -82.53125 113.953125 -82.53125 C 109.710938 -82.53125 105.367188 -81.398438 100.921875 -79.140625 C 96.484375 -76.890625 92.804688 -73.910156 89.890625 -70.203125 L 90.484375 -58.46875 L 90.484375 -21.078125 C 90.484375 -16.046875 91.015625 -12.300781 92.078125 -9.84375 C 93.140625 -7.394531 94.695312 -5.738281 96.75 -4.875 C 98.800781 -4.007812 101.753906 -3.578125 105.609375 -3.578125 L 105.609375 0 L 58.46875 0 L 58.46875 -3.578125 C 62.582031 -3.578125 65.734375 -3.972656 67.921875 -4.765625 C 70.109375 -5.566406 71.695312 -7.191406 72.6875 -9.640625 C 73.6875 -12.097656 74.1875 -15.910156 74.1875 -21.078125 L 74.1875 -64.03125 C 74.1875 -68.675781 72.859375 -72.921875 70.203125 -76.765625 C 67.546875 -80.609375 63.566406 -82.53125 58.265625 -82.53125 C 54.816406 -82.53125 51.035156 -81.535156 46.921875 -79.546875 C 42.816406 -77.554688 38.773438 -74.507812 34.796875 -70.40625 L 34.796875 -21.078125 C 34.796875 -14.316406 35.859375 -9.707031 37.984375 -7.25 C 40.109375 -4.800781 43.554688 -3.578125 48.328125 -3.578125 L 49.515625 -3.578125 L 49.515625 0 L 2.984375 0 L 2.984375 -3.578125 C 7.085938 -3.578125 10.203125 -3.972656 12.328125 -4.765625 C 14.453125 -5.566406 16.007812 -7.226562 17 -9.75 C 18 -12.269531 18.5 -16.046875 18.5 -21.078125 L 18.5 -68.21875 C 18.5 -72.0625 17.703125 -75.238281 16.109375 -77.75 C 14.515625 -80.269531 11.992188 -81.53125 8.546875 -81.53125 C 6.554688 -81.53125 4.703125 -81.203125 2.984375 -80.546875 L 1.59375 -83.921875 L 31.421875 -94.46875 Z M 34.796875 -94.46875 "/></g></g></g><g fill="#ffffff" fill-opacity="1"><g transform="translate(265.740565, 227.278246)"><g><path d="M 27.046875 -19.296875 C 30.097656 -19.296875 32.679688 -18.234375 34.796875 -16.109375 C 36.921875 -13.984375 37.984375 -11.398438 37.984375 -8.359375 C 37.984375 -5.304688 36.921875 -2.6875 34.796875 -0.5 C 32.679688 1.6875 30.097656 2.78125 27.046875 2.78125 C 23.992188 2.78125 21.375 1.6875 19.1875 -0.5 C 17 -2.6875 15.90625 -5.304688 15.90625 -8.359375 C 15.90625 -11.398438 17 -13.984375 19.1875 -16.109375 C 21.375 -18.234375 23.992188 -19.296875 27.046875 -19.296875 Z M 27.046875 -19.296875 "/></g></g></g></svg>